<?xml version="1.0" encoding="UTF-8"?>
<svg width="26px" height="34px" viewBox="0 0 26 34" version="1.1" xmlns="http://www.w3.org/2000/svg" xmlns:xlink="http://www.w3.org/1999/xlink">
    <!-- Generator: Sketch 43.2 (39069) - http://www.bohemiancoding.com/sketch -->
    <title>Slice 1</title>
    <desc>Created with Sketch.</desc>
    <defs>
        <linearGradient x1="0%" y1="0%" x2="101.999998%" y2="100.999999%" id="linearGradient-1">
            <stop stop-color="#3023AE" offset="0%"></stop>
            <stop stop-color="#C96DD8" offset="100%"></stop>
        </linearGradient>
    </defs>
    <g id="Page-1" stroke="none" stroke-width="1" fill="none" fill-rule="evenodd">
        <g id="baked-goods" fill-rule="nonzero" fill="url(#linearGradient-1)">
            <path d="M25.4393043,17.3116667 C25.3833478,16.1256333 24.9243913,15.4989 24.4501739,15.2036667 C24.9266522,14.7214333 25.2041739,14.1661 25.2154783,13.5269 L25.2601304,13.1126667 C25.2629565,13.0871667 25.264087,13.0616667 25.264087,13.0361667 C25.264087,11.2636333 23.8923043,9.8192 22.198913,9.79936667 C22.2859565,9.53983333 22.3317391,9.265 22.3317391,8.9828 C22.3317391,7.58256667 21.2103478,6.44413333 19.8312174,6.44413333 L19.7436087,6.44413333 L19.7436087,6.12906667 C19.7436087,6.0452 19.728913,5.96133333 19.6989565,5.882 C19.0512174,4.1361 17.8094348,3.9712 16.9876087,3.86183333 C16.276,3.76776667 15.9815217,3.72866667 15.7667391,3.0787 C14.9788261,0.697 13.3306522,0.341133333 12.4183913,0.341133333 C11.6146522,0.341133333 11.0019565,0.601233333 10.9346957,0.6307 C10.628913,0.765566667 10.4717826,1.0965 10.5407391,1.4246 C10.6063043,1.73683333 10.8821304,1.9635 11.1963913,1.98503333 C11.3116957,2.10913333 11.4620435,2.61743333 11.2755217,3.18353333 C11.1257391,3.63743333 10.7317826,4.1786 9.70195652,4.1786 L9.5193913,4.1769 C8.31265217,4.1769 7.44786957,4.52256667 6.94991304,5.20426667 C6.64978261,5.61453333 6.54691304,6.0622 6.52826087,6.44356667 L5.82908696,6.44356667 C4.44995652,6.44356667 3.328,7.58256667 3.328,8.98223333 C3.328,9.26443333 3.37434783,9.53926667 3.46082609,9.7988 C1.76743478,9.81863333 0.395652174,11.2630667 0.395652174,13.0356 C0.395652174,13.0707333 0.398478261,13.1064333 0.403565217,13.1421333 L0.464043478,13.5433333 C0.481565217,14.2329667 0.806,14.8262667 1.35991304,15.3328667 C0.975565217,15.6417 0.609869565,16.2253667 0.560695652,17.3099667 C0.261695652,17.4635333 0.0983478261,17.8041 0.200652174,18.1373 L4.11478261,30.8538667 C4.33804348,33.0616 9.76243478,33.6577333 12.9971739,33.6577333 L12.9971739,33.6577333 L12.9971739,33.6577333 C16.231913,33.6577333 21.6568696,33.0616 21.8801304,30.8538667 L25.7942609,18.1373 C25.8999565,17.8058 25.7371739,17.4658 25.4393043,17.3116667 Z M3.497,11.2160333 L4.83995652,11.2160333 C5.15026087,11.2160333 5.4243913,11.0131667 5.5153913,10.7151 C5.6063913,10.4176 5.49278261,10.0951667 5.2356087,9.9212 C4.92643478,9.71153333 4.74217391,9.36076667 4.74217391,8.9828 C4.74217391,8.364 5.22995652,7.8608 5.83021739,7.8608 L7.31108696,7.8608 C7.53604348,7.8608 7.748,7.7537 7.88082609,7.57066667 C8.01365217,7.38876667 8.05265217,7.15416667 7.98482609,6.93883333 C7.98313043,6.93373333 7.83504348,6.392 8.09108696,6.04236667 C8.36182609,5.67233333 9.01804348,5.59413333 9.52052174,5.59413333 L9.70308696,5.59583333 C11.8147391,5.59583333 12.7767391,4.06186667 12.7767391,2.63726667 C12.7767391,2.32163333 12.732087,2.0298 12.649,1.7697 C13.4832609,1.85696667 14.066,2.43383333 14.4266087,3.52523333 C14.9200435,5.0167 16.008087,5.1612 16.8027826,5.2666 C17.5330435,5.3635 17.9852174,5.42356667 18.3311304,6.2628 L18.3311304,7.15246667 C18.3311304,7.54346667 18.6476522,7.8608 19.0376522,7.8608 L19.8317826,7.8608 C20.4314783,7.8608 20.9192609,8.36456667 20.9192609,8.9828 C20.9192609,9.36076667 20.7344348,9.71153333 20.4252609,9.9212 C20.168087,10.0957333 20.0544783,10.4176 20.1454783,10.7151 C20.2364783,11.0126 20.5106087,11.2160333 20.820913,11.2160333 L22.1644348,11.2160333 C23.0834783,11.2160333 23.8335217,12.0133333 23.8510435,13.0004667 L23.8069565,13.4090333 C23.8041304,13.4345333 23.803,13.4600333 23.803,13.4855333 C23.803,14.9101333 19.6113478,16.4480667 12.8400435,16.4480667 C6.06873913,16.4480667 1.87708696,14.9101333 1.87708696,13.4855333 C1.87708696,13.4504 1.87426087,13.4147 1.86917391,13.379 L1.80982609,12.9868667 C1.83469565,12.0059667 2.58191304,11.2160333 3.497,11.2160333 Z M12.8406087,17.8641667 C16.5936522,17.8641667 20.7598696,17.3677667 23.1744783,16.1097667 C23.3033478,16.2780667 23.4972174,16.3942333 23.7261304,16.3942333 C23.7283913,16.3942333 23.9086957,16.524 23.9923478,17.0107667 C23.3333043,18.0982 19.6260435,19.261 13,19.261 L13,19.261 L13,19.261 C6.37,19.261 2.6616087,18.0959333 2.00652174,17.0085 C2.08169565,16.5653667 2.24221739,16.4152 2.32078261,16.3925333 C2.47734783,16.3823333 2.61356522,16.3132 2.72547826,16.2174333 C5.16721739,17.3961 9.19721739,17.8641667 12.8406087,17.8641667 Z M15.170103,31.3411333 L16.4752345,21.6573783 C17.8234526,21.578436 19.0666962,21.4723869 20.1963478,21.3411333 L16.3953285,31.2231953 C16.0153833,31.266471 15.6017521,31.304991 15.170103,31.3411333 Z" id="Shape"></path>
        </g>
    </g>
</svg>