<svg xmlns="http://www.w3.org/2000/svg" xmlns:xlink="http://www.w3.org/1999/xlink" version="1.1" x="0px" y="0px" viewBox="0 0 100 100" enable-background="new 0 0 100 100" xml:space="preserve"><path fill="#000000" d="M72.008,50.55c-0.099-2.093-0.911-3.199-1.75-3.72c0.843-0.851,1.334-1.831,1.354-2.959l0.079-0.731  c0.005-0.045,0.007-0.09,0.007-0.135c0-3.128-2.427-5.677-5.423-5.712c0.154-0.458,0.235-0.943,0.235-1.441  c0-2.471-1.984-4.48-4.424-4.48h-0.155v-0.556c0-0.148-0.026-0.296-0.079-0.436c-1.146-3.081-3.343-3.372-4.797-3.565  c-1.259-0.166-1.78-0.235-2.16-1.382c-1.394-4.203-4.31-4.831-5.924-4.831c-1.422,0-2.506,0.459-2.625,0.511  c-0.541,0.238-0.819,0.822-0.697,1.401c0.116,0.551,0.604,0.951,1.16,0.989c0.204,0.219,0.47,1.116,0.14,2.115  c-0.265,0.801-0.962,1.756-2.784,1.756l-0.323-0.003c-2.135,0-3.665,0.61-4.546,1.813c-0.531,0.724-0.713,1.514-0.746,2.187h-1.237  c-2.44,0-4.425,2.01-4.425,4.48c0,0.498,0.082,0.983,0.235,1.441c-2.996,0.035-5.423,2.584-5.423,5.712  c0,0.062,0.005,0.125,0.014,0.188l0.107,0.708c0.031,1.217,0.605,2.264,1.585,3.158c-0.68,0.545-1.327,1.575-1.414,3.489  c-0.529,0.271-0.818,0.872-0.637,1.46l6.925,22.441c0.395,3.896,9.992,4.948,15.715,4.948h0h0c5.723,0,15.321-1.052,15.716-4.948  l6.925-22.441C72.823,51.422,72.535,50.822,72.008,50.55z M33.187,39.793h2.376c0.549,0,1.034-0.358,1.195-0.884  c0.161-0.525-0.04-1.094-0.495-1.401c-0.547-0.37-0.873-0.989-0.873-1.656c0-1.092,0.863-1.98,1.925-1.98h2.62  c0.398,0,0.773-0.189,1.008-0.512c0.235-0.321,0.304-0.735,0.184-1.115c-0.003-0.009-0.265-0.965,0.188-1.582  c0.479-0.653,1.64-0.791,2.529-0.791l0.323,0.003c3.736,0,5.438-2.707,5.438-5.221c0-0.557-0.079-1.072-0.226-1.531  c1.476,0.154,2.507,1.172,3.145,3.098c0.873,2.632,2.798,2.887,4.204,3.073c1.292,0.171,2.092,0.277,2.704,1.758v1.57  c0,0.69,0.56,1.25,1.25,1.25h1.405c1.061,0,1.924,0.889,1.924,1.98c0,0.667-0.327,1.286-0.874,1.656  c-0.455,0.308-0.656,0.876-0.495,1.401c0.161,0.525,0.646,0.884,1.195,0.884h2.377c1.626,0,2.953,1.407,2.984,3.149l-0.078,0.721  c-0.005,0.045-0.007,0.09-0.007,0.135c0,2.514-7.416,5.228-19.396,5.228s-19.396-2.714-19.396-5.228  c0-0.062-0.005-0.125-0.014-0.188l-0.105-0.692C30.246,41.187,31.568,39.793,33.187,39.793z M49.718,51.525  c6.64,0,14.011-0.876,18.283-3.096c0.228,0.297,0.571,0.502,0.976,0.502c0.004,0,0.323,0.229,0.471,1.088  C68.282,51.938,61.723,53.99,50,53.99h0h0c-11.73,0-18.291-2.056-19.45-3.975c0.133-0.782,0.417-1.047,0.556-1.087  c0.277-0.018,0.518-0.14,0.716-0.309C36.142,50.699,43.272,51.525,49.718,51.525z M56.316,76.494l1.666-20.363  c1.721-0.166,3.308-0.389,4.75-0.665l-4.852,20.78C57.395,76.337,56.867,76.418,56.316,76.494z M41.59,76.141l-4.852-20.777  c1.439,0.296,3.036,0.535,4.771,0.717l1.664,20.346C42.603,76.339,42.083,76.242,41.59,76.141z M44.035,56.299  c1.488,0.1,3.066,0.157,4.715,0.178V76.88c-1.089-0.024-2.107-0.078-3.045-0.159L44.035,56.299z M53.787,76.758  c-0.796,0.06-1.638,0.102-2.537,0.122V56.482c1.467-0.019,2.868-0.071,4.208-0.152L53.787,76.758z M36.765,74.2  c0-0.065-0.027-0.121-0.037-0.184c-0.009-0.062,0-0.123-0.019-0.185l-6.401-20.745c0.965,0.606,2.207,1.141,3.705,1.595  l4.838,20.722C37.555,74.943,36.862,74.483,36.765,74.2z M60.602,75.581l4.844-20.745c1.74-0.486,3.168-1.072,4.247-1.75  l-6.402,20.746c-0.017,0.054-0.007,0.106-0.016,0.16c-0.009,0.06-0.035,0.112-0.035,0.174  C63.128,74.502,62.254,75.058,60.602,75.581z"></path><path fill="#000000" d="M40.562,45.641c0.247,0.3,0.604,0.454,0.964,0.454c0.28,0,0.562-0.094,0.795-0.286  c0.532-0.439,0.607-1.228,0.168-1.76l-1.6-1.938c-0.439-0.532-1.228-0.606-1.76-0.168c-0.532,0.439-0.607,1.228-0.168,1.76  L40.562,45.641z"></path><path fill="#000000" d="M42.62,38.936c0.063,0,0.127-0.005,0.191-0.015l2.947-0.452c0.683-0.104,1.151-0.742,1.046-1.425  c-0.104-0.683-0.743-1.146-1.425-1.046l-2.947,0.452c-0.683,0.104-1.151,0.742-1.046,1.425C41.48,38.493,42.013,38.936,42.62,38.936  z"></path><path fill="#000000" d="M50.951,35.336c0.244,0.244,0.563,0.366,0.883,0.366s0.64-0.122,0.884-0.366  c0.488-0.488,0.488-1.28-0.001-1.768l-1.23-1.229c-0.487-0.488-1.279-0.488-1.768,0c-0.488,0.488-0.488,1.28,0.001,1.768  L50.951,35.336z"></path><path fill="#000000" d="M50.25,44.225c0.32,0,0.64-0.122,0.884-0.366l1.584-1.583c0.488-0.487,0.488-1.279,0-1.768  c-0.488-0.488-1.28-0.488-1.768,0l-1.584,1.583c-0.488,0.487-0.488,1.279,0,1.768C49.61,44.103,49.93,44.225,50.25,44.225z"></path><path fill="#000000" d="M60.085,43.274c0.244,0.244,0.564,0.366,0.884,0.366s0.64-0.122,0.884-0.366  c0.488-0.488,0.488-1.279,0-1.768l-2.179-2.179c-0.488-0.488-1.279-0.488-1.768,0s-0.488,1.279,0,1.768L60.085,43.274z"></path></svg>