<svg xmlns="http://www.w3.org/2000/svg" xmlns:xlink="http://www.w3.org/1999/xlink" version="1.1" x="0px" y="0px" viewBox="0 0 91 91" enable-background="new 0 0 91 91" xml:space="preserve"><g><path d="M63.236,55.326c-0.744-0.43-1.699-0.178-2.131,0.57L43.709,86.025l-6.795-11.771l6.18,2.66   c0.201,0.086,0.41,0.127,0.615,0.127c0.605,0,1.18-0.354,1.436-0.943c0.34-0.793-0.025-1.711-0.818-2.051l-10.023-4.314   l-3.014-5.219l15.4,6.408c0.197,0.082,0.4,0.121,0.6,0.121c0.611,0,1.191-0.363,1.441-0.963c0.332-0.795-0.045-1.709-0.842-2.039   l-19.166-7.975l-2.408-4.17c-0.43-0.746-1.385-1-2.131-0.57c-0.748,0.43-1.004,1.385-0.572,2.131l18.746,32.469   c0.279,0.484,0.795,0.781,1.352,0.781c0.559,0,1.072-0.297,1.352-0.781l18.748-32.469C64.238,56.711,63.982,55.756,63.236,55.326z"></path><path d="M57.473,5.539c-2.02,1.6-3.355,4.162-3.578,6.857c-0.201,2.477,0.539,4.881,2.082,6.859   c-0.129,0.484-0.244,0.975-0.348,1.475c-1.102-0.748-2.422-1.434-3.959-2.039c-0.518-0.189-3.041-1.311-1.939-4.869l0.84-2.719   l-2.744,0.754C30.983,16.48,28.469,23.173,28.469,26.751c0,0.594,0.125,1.744,0.85,3.08c-3.764,1.752-5.688,4.305-5.688,7.621   c0,0.986,0.26,1.934,0.758,2.832c-2.83,1.607-4.086,3.551-4.086,6.278c0,6.066,10.063,10.641,23.406,10.641   c13.343,0,23.406-4.574,23.406-10.641c0-2.141-1.256-4.106-3.518-5.758c0.668-0.883,0.773-1.754,0.762-2.971l-0.002-0.381   c0-2.797-2.197-5.336-6.023-7.238c0.934-1.324,1.188-2.555,1.188-3.463c0-1.211-0.398-2.373-1.168-3.457   c0.002-0.012,0.01-0.02,0.01-0.029c0.119-0.941,0.301-1.846,0.518-2.727c0.199,0.094,0.422,0.146,0.658,0.146h0.002   c1.734-0.002,3.063-0.143,4.305-0.455c4.348-1.098,6.568-4.104,6.422-8.693c-0.053-1.662-0.066-3.586,0.436-5.365   c0.195-0.699,0.633-2.016,0.947-2.898L72.49,0.9l-2.498,0.301C65.975,1.685,61.363,2.46,57.473,5.539z M50.521,27.697   c-0.848-0.164-1.666,0.387-1.83,1.232c-0.164,0.848,0.387,1.666,1.232,1.832c6.66,1.297,11.313,4.049,11.313,6.691l0.002,0.408   c0.008,0.768,0,1.01-0.355,1.336c-2.355-1.129-5.309-2.021-8.75-2.598c-0.842-0.141-1.654,0.432-1.797,1.281   s0.43,1.654,1.281,1.797c8.125,1.361,12.377,4.494,12.377,6.885c0,3.557-8.33,7.52-20.285,7.52c-11.953,0-20.285-3.963-20.285-7.52   c0-1.279,0.256-2.465,3.041-3.864c1.965,1.641,4.9,3.01,8.672,3.985c0.131,0.033,0.262,0.049,0.391,0.049   c0.695,0,1.328-0.467,1.512-1.17c0.215-0.834-0.287-1.686-1.121-1.901c-3.699-0.955-6.52-2.352-8.002-3.865   c-0.045-0.049-0.09-0.096-0.139-0.137c-0.666-0.723-1.025-1.471-1.025-2.207c0-1.412,0.494-3.463,4.609-5.117   c1.561,1.367,3.953,2.701,7.615,3.676c0.135,0.035,0.27,0.053,0.402,0.053c0.691,0,1.322-0.461,1.508-1.16   c0.221-0.832-0.275-1.688-1.107-1.908c-6.045-1.607-8.189-4.369-8.189-6.244c0-2.051,1.492-7.086,14.73-11.205   c0.006,3.58,2.625,5.51,4.256,6.066c3.646,1.439,5.824,3.361,5.824,5.139c0,0.73-0.367,1.475-1.066,2.221   C53.875,28.47,52.27,28.037,50.521,27.697z M67.697,5.328c-0.619,2.205-0.609,4.412-0.549,6.309c0.1,3.158-1.115,4.822-4.064,5.566   c-0.914,0.229-1.932,0.338-3.242,0.355c0.912-2.25,2.186-4.309,3.869-6.201c0.572-0.645,0.514-1.631-0.129-2.203   c-0.646-0.572-1.633-0.514-2.203,0.129c-1.682,1.891-3.012,3.92-4.018,6.111c-0.359-1.027-0.416-1.99-0.355-2.742   c0.152-1.85,1.051-3.594,2.404-4.666c2.365-1.871,5.152-2.775,8.49-3.336C67.822,4.898,67.754,5.128,67.697,5.328z"></path></g></svg>