<svg xmlns="http://www.w3.org/2000/svg" xmlns:xlink="http://www.w3.org/1999/xlink" version="1.1" x="0px" y="0px" viewBox="0 0 91 91" enable-background="new 0 0 91 91" xml:space="preserve"><g><path d="M67.382,30.248c-1.762-10.119-10.514-17.59-20.932-17.59c-1.807,0-3.557,0.242-5.234,0.666l-0.762-4.199   c-0.963-5.693-6.256-7.363-8.678-7.27l-14.488-0.75l-0.162,3.117l14.566,0.754c0.059,0.002,0.115,0.002,0.176-0.002   c0.77-0.027,4.816,0.58,5.512,4.689l0.844,4.654c-6.543,2.734-11.441,8.639-12.709,15.93c-1.441,0.031-2.607,1.209-2.607,2.66   v6.426c0,1.471,1.195,2.666,2.666,2.666h0.063l5.422,45.859c0.154,1.352,1.295,2.371,2.652,2.371h25.373   c1.361,0,2.5-1.023,2.646-2.365L67.155,42h0.17c1.473,0,2.67-1.195,2.67-2.666v-6.426C69.995,31.457,68.827,30.279,67.382,30.248z    M46.45,15.779c8.703,0,16.059,6.104,17.773,14.459H44.282l-2.512-13.852C43.265,15.99,44.835,15.779,46.45,15.779z M38.794,17.461   l2.316,12.777H28.673C29.849,24.502,33.687,19.828,38.794,17.461z M58.677,87.109H34.112l-1.047-8.842h26.656L58.677,87.109z    M60.091,75.146H32.698l-3.01-25.453h33.414L60.091,75.146z M66.874,38.879h-1.105c-0.791,0-1.457,0.592-1.551,1.377l-0.746,6.316   H29.319L28.778,42h30.467v-3.121H27.024l0,0c-0.002,0-0.002,0-0.002,0h-0.994v-5.516h40.846V38.879z"></path><path d="M53.22,24.25l2.387-2.012c-2.254-2.672-5.543-4.365-9.021-4.65l-0.254,3.111C48.987,20.916,51.499,22.211,53.22,24.25z"></path><path d="M57.315,27.021c0.41,0,0.811-0.17,1.102-0.461c0.289-0.289,0.459-0.689,0.459-1.1s-0.17-0.82-0.459-1.1   c-0.59-0.59-1.621-0.59-2.211,0c-0.289,0.289-0.449,0.689-0.449,1.1s0.16,0.811,0.459,1.1   C56.497,26.852,56.907,27.021,57.315,27.021z"></path><path d="M56.757,52.01c-4.369-0.295-9.432-0.398-14.178,2.088c-2.445,1.279-4.367,3.713-5.141,6.512   c-0.715,2.59-0.402,5.297,0.854,7.707c-0.578,1.191-1.084,2.445-1.512,3.768c-0.266,0.82,0.182,1.701,1.002,1.967   c0.16,0.051,0.322,0.076,0.482,0.076c0.658,0,1.27-0.42,1.484-1.08c0.34-1.047,0.74-2.037,1.184-2.99   c0.207,0.186,0.457,0.326,0.75,0.381c1.471,0.277,2.682,0.408,3.805,0.408c0.289,0,0.572-0.008,0.854-0.025   c4.791-0.287,7.729-3.01,8.494-7.871c0.283-1.801,0.66-3.873,1.561-5.682c0.352-0.707,1.09-2.029,1.605-2.916l1.264-2.174   L56.757,52.01z M53.601,55.877c-1.098,2.205-1.529,4.557-1.85,6.588c-0.537,3.424-2.266,5.039-5.6,5.24   c-1.076,0.063-2.244-0.035-3.764-0.313c1.455-2.303,3.281-4.313,5.531-6.049c0.682-0.525,0.809-1.506,0.281-2.188   c-0.527-0.684-1.506-0.811-2.188-0.283c-2.26,1.744-4.148,3.723-5.695,5.965c-0.27-1.334-0.113-2.516,0.131-3.398   c0.547-1.979,1.885-3.689,3.58-4.576c2.988-1.566,6.242-1.955,10.029-1.859C53.884,55.324,53.726,55.625,53.601,55.877z"></path></g></svg>