<?xml version="1.0" encoding="UTF-8"?>
<svg width="19px" height="33px" viewBox="0 0 19 33" version="1.1" xmlns="http://www.w3.org/2000/svg" xmlns:xlink="http://www.w3.org/1999/xlink">
    <!-- Generator: Sketch 43.2 (39069) - http://www.bohemiancoding.com/sketch -->
    <title>ice-cream 2</title>
    <desc>Created with Sketch.</desc>
    <defs>
        <linearGradient x1="0.25781251%" y1="49.7500002%" x2="101.257813%" y2="49.7500002%" id="linearGradient-1">
            <stop stop-color="#3023AE" offset="0%"></stop>
            <stop stop-color="#53A0FE" offset="100%"></stop>
        </linearGradient>
    </defs>
    <g id="Page-1" stroke="none" stroke-width="1" fill="none" fill-rule="evenodd">
        <g id="ice-cream" fill-rule="nonzero" fill="url(#linearGradient-1)">
            <path d="M15.4996981,20.0632747 C15.2329811,19.9073407 14.8906226,19.9987253 14.7357547,20.269978 L8.49945283,31.1958791 L6.06350943,26.9272747 L8.27898113,27.8918901 C8.35103774,27.9230769 8.42596226,27.9379451 8.49945283,27.9379451 C8.71633962,27.9379451 8.9224717,27.8095714 9.01424528,27.595978 C9.13613208,27.3084066 9.00528302,26.9755055 8.721,26.8522088 L5.12784906,25.2877912 L4.04735849,23.3951868 L9.56811321,25.718967 C9.63873585,25.7487033 9.71150943,25.7628462 9.78320755,25.7628462 C10.0022453,25.7628462 10.2101698,25.6312088 10.2997925,25.4136264 C10.4188113,25.1253297 10.2836604,24.7938791 9.9979434,24.6742088 L3.12711321,21.7821758 L2.26386792,20.269978 C2.10971698,19.9994505 1.76735849,19.9073407 1.49992453,20.0632747 C1.23177358,20.2192088 1.14,20.5655275 1.29486792,20.8360549 L8.01513208,32.6105275 C8.11515094,32.786044 8.30013208,32.8937473 8.49981132,32.8937473 C8.70020755,32.8937473 8.88411321,32.786044 8.98449057,32.6105275 L15.7054717,20.8360549 C15.8589057,20.5655275 15.7671321,20.2192088 15.4996981,20.0632747 Z" id="Shape"></path>
            <path d="M13.433717,2.00864835 C12.709566,2.58886813 12.2309811,3.51794505 12.1510377,4.49525275 C12.0789811,5.39350549 12.3442642,6.26528571 12.8974151,6.98258242 C12.8511698,7.1580989 12.8099434,7.33615385 12.7726604,7.51747253 C12.3776038,7.24621978 11.9043962,6.99745055 11.3533962,6.77805495 C11.1676981,6.70951648 10.2632264,6.30263736 10.658283,5.01237363 L10.9594151,4.02636264 L9.97571698,4.29979121 C3.93730189,5.97626374 3.0360566,8.4033956 3.0360566,9.70091209 C3.0360566,9.91631868 3.08086792,10.3333516 3.34077358,10.8178352 C1.99141509,11.4531758 1.30167925,12.378989 1.30167925,13.5814945 C1.30167925,13.9390549 1.39488679,14.2828352 1.57341509,14.6084835 C0.558886792,15.1912418 0.108622642,15.8962088 0.108622642,16.8851209 C0.108622642,19.0848791 3.71611321,20.7439451 8.49945283,20.7439451 C13.2827925,20.7439451 16.890283,19.0852418 16.890283,16.8851209 C16.890283,16.1087143 16.4400189,15.3961319 15.6291132,14.7970549 C15.8685849,14.4768462 15.9062264,14.160989 15.902283,13.7196593 L15.901566,13.5814945 C15.901566,12.5671978 15.1139623,11.6464615 13.7423774,10.9567253 C14.0772075,10.4765934 14.1682642,10.0301868 14.1682642,9.70091209 C14.1682642,9.26175824 14.0255849,8.84037363 13.7495472,8.44727473 C13.7502642,8.44292308 13.7531321,8.44002198 13.7531321,8.43675824 C13.7957925,8.09551648 13.8610377,7.76732967 13.9388302,7.44784615 C14.0101698,7.48193407 14.0901132,7.50079121 14.174717,7.50079121 L14.175434,7.50079121 C14.7970566,7.50006593 15.2734906,7.44893407 15.7187358,7.33579121 C17.2774528,6.93761538 18.0733019,5.84752747 18.0209623,4.18338462 C18.0019623,3.58068132 17.9973019,2.88296703 18.1772642,2.23783516 C18.2471698,1.98435165 18.4041887,1.50675824 18.5167547,1.18691209 L18.8171698,0.326373626 L17.9216604,0.435527473 C16.4816038,0.611043956 14.8282453,0.892087912 13.433717,2.00864835 Z M10.9414906,10.043967 C10.6374906,9.98449451 10.3442453,10.1843077 10.2854528,10.4907363 C10.2266604,10.7982527 10.4241887,11.0948901 10.7271132,11.1550879 C13.1146604,11.6254286 14.782717,12.6234066 14.782717,13.5814945 L14.783434,13.7294505 C14.7863019,14.007956 14.783434,14.0957143 14.6561698,14.2139341 C13.8119245,13.8045165 12.7529434,13.481044 11.5193774,13.2718022 C11.2175283,13.2206703 10.926434,13.4284615 10.8751698,13.7363407 C10.8239057,14.0442198 11.0293208,14.3361429 11.3343962,14.388 C14.2471321,14.8815495 15.771434,16.0176923 15.771434,16.8847582 C15.771434,18.1746593 12.7852075,19.6117912 8.49945283,19.6117912 C4.21441509,19.6117912 1.2274717,18.1746593 1.2274717,16.8847582 C1.2274717,16.4209451 1.31924528,15.9908571 2.31764151,15.4835275 C3.02207547,16.0786154 4.07424528,16.5750659 5.4264717,16.9286374 C5.47343396,16.9406044 5.52039623,16.9464066 5.56664151,16.9464066 C5.81579245,16.9464066 6.04271698,16.7770549 6.10867925,16.5221209 C6.18575472,16.2196813 6.00579245,15.9107143 5.70681132,15.8327473 C4.38075472,15.4864286 3.36945283,14.9798242 2.83816981,14.4311538 C2.82203774,14.4133846 2.80590566,14.3963407 2.78833962,14.3814725 C2.54958491,14.1192857 2.42088679,13.848033 2.42088679,13.5811319 C2.42088679,13.0690879 2.59798113,12.3253187 4.07316981,11.7255165 C4.63277358,12.2212418 5.49028302,12.705 6.80307547,13.0585714 C6.8514717,13.0712637 6.89986792,13.0777912 6.94718868,13.0777912 C7.19490566,13.0777912 7.42111321,12.9106154 7.48779245,12.6571319 C7.56701887,12.3554176 7.38920755,12.045 7.0909434,11.9652198 C4.92386792,11.3824615 4.15526415,10.3808571 4.15526415,9.70091209 C4.15526415,8.95714286 4.69013208,7.13126374 9.43583019,5.63756044 C9.43798113,6.9358022 10.3768679,7.63569231 10.961566,7.83731868 C12.2686226,8.35915385 13.0494151,9.05614286 13.0494151,9.70091209 C13.0494151,9.96563736 12.9178491,10.2358022 12.6672642,10.5063297 C12.1438679,10.3242857 11.5684906,10.1672637 10.9414906,10.043967 Z M17.0989245,1.93213187 C16.8770189,2.73174725 16.8806038,3.53208791 16.9021132,4.22001099 C16.9379623,5.36521978 16.5023962,5.96864835 15.4452075,6.23845055 C15.1175472,6.32149451 14.7526038,6.36102198 14.2829811,6.36718681 C14.6099245,5.55125275 15.0666415,4.80458242 15.6699811,4.11847253 C15.8750377,3.88457143 15.8542453,3.52701099 15.6237358,3.31958242 C15.3921509,3.11215385 15.0383208,3.13318681 14.8339811,3.36636264 C14.231,4.05210989 13.7542075,4.7879011 13.393566,5.58243956 C13.2648679,5.21001099 13.244434,4.86079121 13.2663019,4.58808791 C13.3207925,3.91720879 13.6430755,3.28476923 14.1281132,2.89602198 C14.9759434,2.21752747 15.9750566,1.8897033 17.1716981,1.68626374 C17.1437358,1.7761978 17.1193585,1.8596044 17.0989245,1.93213187 Z" id="Shape"></path>
        </g>
    </g>
</svg>