<svg xmlns="http://www.w3.org/2000/svg" xmlns:xlink="http://www.w3.org/1999/xlink" version="1.1" x="0px" y="0px" viewBox="0 0 91 91" enable-background="new 0 0 91 91" xml:space="preserve"><g><path d="M72.688,13.857H37.774l-0.551-3.945c-0.705-5.625-5.852-7.486-8.201-7.498L14.899,1.07l-0.295,3.107l14.201,1.35   c0.057,0.006,0.113,0.006,0.174,0.008c0.719,0.029,4.645,0.762,5.148,4.787l0.494,3.535h-5.375c-0.74,0-1.459,0.309-1.965,0.84   c-0.512,0.531-0.787,1.262-0.754,2.018l1.268,25.365c0.031,0.547,0.219,1.064,0.535,1.48l4.113,5.54l2.744,38.238   c0.1,1.418,1.293,2.527,2.715,2.527h26.02c1.422,0,2.613-1.109,2.715-2.525L69.38,49.1l4.119-5.542   c0.316-0.43,0.5-0.938,0.529-1.471l1.379-25.373c0.035-0.738-0.236-1.471-0.744-2.008C74.151,14.168,73.431,13.857,72.688,13.857z    M72.269,16.979l-0.594,10.924l-0.436-0.359c-0.051,0.061-3.061,3.604-8.438,5.057c0.039-1.432-0.914-2.76-2.367-3.131   l-6.096-1.523c-0.25-0.063-0.506-0.094-0.762-0.094c-1.441,0-2.689,0.977-3.037,2.373l-0.334,1.332   c-0.533-0.217-1.074-0.447-1.625-0.715c-3.16-1.529-6.127-2.18-8.76-2.334L38.21,16.979H72.269z M52.419,35.578   c2.031,0.527,3.943,0.762,5.717,0.762c0.205,0,0.396-0.02,0.598-0.025l-0.574,2.297c-0.002,0.002-0.008,0.006-0.01,0.006   l-6.107-1.539L52.419,35.578z M53.183,32.549l0.396-1.576l6.105,1.539l-0.16,0.643C57.616,33.299,55.497,33.148,53.183,32.549z    M35.06,16.979l1.617,11.572c-2.768,0.24-4.965,0.969-6.354,1.555l-0.656-13.127H35.06z M66.603,47.604   c-0.176,0.238-0.281,0.521-0.303,0.818l-2.75,38.322H38.274l-2.748-38.322c-0.021-0.297-0.127-0.58-0.305-0.818l-4.314-5.811   l-0.416-8.314c0.643-0.348,3.086-1.531,6.621-1.807l7.273,52.047l3.092-0.432l-7.211-51.594c2.117,0.191,4.465,0.754,6.955,1.959   c0.756,0.365,1.492,0.674,2.221,0.957l-0.43,1.715c-0.414,1.672,0.607,3.375,2.279,3.795l6.096,1.523   c0.248,0.063,0.506,0.096,0.762,0.096c1.441,0,2.691-0.976,3.039-2.373l0.852-3.408c4.279-0.824,7.49-2.838,9.436-4.398   l-0.557,10.238L66.603,47.604z"></path><path d="M60.435,68.559l-6.096-1.523c-0.25-0.063-0.506-0.096-0.762-0.096c-1.441,0-2.689,0.977-3.037,2.371l-1.527,6.102   c-0.416,1.674,0.607,3.375,2.279,3.795l6.096,1.527c0.25,0.061,0.506,0.092,0.76,0.092c1.441,0,2.693-0.975,3.041-2.371l1.523-6.1   C63.132,70.684,62.11,68.98,60.435,68.559z M58.159,77.699c-0.002,0.002-0.008,0.006-0.012,0.006l-6.105-1.537l1.537-6.105   l6.105,1.535L58.159,77.699z"></path><path d="M49.038,47.889c-2.113,1.674-3.516,4.359-3.746,7.186c-0.213,2.607,0.574,5.139,2.209,7.215   c-0.334,1.238-0.59,2.521-0.76,3.857c-0.109,0.855,0.496,1.637,1.35,1.744c0.068,0.01,0.135,0.014,0.199,0.014   c0.775,0,1.447-0.576,1.547-1.363c0.133-1.039,0.332-2.035,0.576-3.008c0.225,0.125,0.479,0.203,0.754,0.203   c0.002,0,0.002,0,0.002,0c1.822-0.002,3.219-0.148,4.527-0.479c4.551-1.148,6.875-4.295,6.723-9.1   c-0.057-1.766-0.07-3.807,0.463-5.695c0.199-0.715,0.668-2.123,1.004-3.07l0.842-2.374l-2.5,0.301   C57.991,43.832,53.13,44.648,49.038,47.889z M59.876,47.617c-0.652,2.316-0.641,4.641-0.576,6.639   c0.105,3.389-1.199,5.176-4.365,5.977c-1.004,0.25-2.121,0.367-3.578,0.379c0.971-2.436,2.34-4.66,4.154-6.705   c0.572-0.645,0.514-1.631-0.131-2.203c-0.643-0.572-1.631-0.514-2.203,0.131c-1.818,2.047-3.254,4.248-4.322,6.633   c-0.455-1.176-0.521-2.283-0.451-3.139c0.162-1.979,1.123-3.846,2.572-4.992c2.549-2.018,5.551-2.975,9.156-3.568   C60.034,47.078,59.946,47.371,59.876,47.617z"></path></g></svg>