<svg xmlns="http://www.w3.org/2000/svg" xmlns:xlink="http://www.w3.org/1999/xlink" viewBox="0 0 300 300" version="1.1" x="0px" y="0px"><title>whisk</title><desc>Created with Sketch.</desc><g stroke="none" stroke-width="1" fill="whitesmoke" fill-rule="evenodd"><g stroke="#000000" stroke-width="3"><path d="M126.278643,189.786379 C119.638111,189.786379 114.683612,186.340688 115.228743,181.959341 L122.351296,124.713658 C124.31794,108.907267 140.383383,96.0936553 158.15354,96.0936553 C175.959929,96.0936553 191.991317,108.924776 193.955783,124.713658 L201.078337,181.959341 C201.616177,186.282095 196.692233,189.786379 190.028436,189.786379" transform="translate(158.153127, 142.940017) rotate(26.000000) translate(-158.153127, -142.940017) "></path><path d="M138.743855,189.719702 C134.593754,189.719702 131.501422,186.274012 131.845332,181.892664 L136.139407,124.646981 C137.259811,108.84059 147.356274,96.0269785 158.664556,96.0269785 C169.995894,96.0269785 180.070526,108.858099 181.189704,124.646981 L185.48378,181.892664 C185.823076,186.215418 182.749898,189.719702 178.585257,189.719702" transform="translate(158.664293, 142.873340) rotate(26.000000) translate(-158.664293, -142.873340) "></path><path d="M131.90695,182.12832 C131.190436,179.851504 130.652784,177.703177 132.270084,173.818968 L155.607866,123.068786 C162.773981,109.0559 172.312593,99.4263222 176.584882,101.550847 C180.837623,103.679703 178.628192,117.095342 171.951708,131.479884 L150.140604,183.63386 C148.646107,187.572127 147.494785,188.287631 145.014952,189.394298" transform="translate(154.986585, 145.325729) rotate(2.000000) translate(-154.986585, -145.325729) "></path><path d="M173.502532,108.292788 L174.084357,65.7751104 C174.287545,54.010947 181.093611,53.1081562 189.245004,53.1081562 C197.413017,53.1081562 204.201434,54.0152927 204.405379,65.7751104 C204.405379,65.7751104 204.790166,96.7811197 204.98573,107.96715" transform="translate(189.244131, 80.700472) rotate(26.000000) translate(-189.244131, -80.700472) "></path><path d="M169.736339,88.1360119 L196.604105,88.1360119" stroke-linecap="square" transform="translate(183.170222, 88.136012) rotate(26.000000) translate(-183.170222, -88.136012) "></path><path d="M50,178.552632 C50,221.546086 91.4136606,256.399166 142.5,256.399166 C193.586339,256.399166 235,221.546086 235,178.552632"></path></g></g></svg>
